PathFileType	4	(X/Y/Z)	OpenSim_Sub04_EMGStiffKnee_Gyro.trc
DataRate	CameraRate	NumFrames	NumMarkers	Units	OrigDataRate	OrigDataStartFrame	OrigNumFrames
100	100	20	8	m	100	5174	8277
Frame#	Time	torso_imu_offset_imu	pelvis_imu_offset_imu	tibia_r_imu_offset_imu	femur_r_imu_offset_imu	tibia_l_imu_offset_imu	femur_l_imu_offset_imu	toes_r_imu_offset_imu	toes_l_imu_offset_imu
				X1	Y1	Z1	X2	Y2	Z2	X3	Y3	Z3	X4	Y4	Z4	X5	Y5	Z5	X6	Y6	Z6	X7	Y7	Z7	X8		Y8	Z8	

5174	51.73000000	-0.17835212	-0.00855893	0.08515563	-0.57046772	-0.08567549	-0.41622089	-0.53985350	-0.04810378	-0.58224188	-0.88193426	0.01623352	-0.46147303	0.03706897	0.34192747	-1.90963039	-1.37513430	-0.00728798	-0.28879014	-0.13566306	-0.21680275	-0.31971247	0.43961578	0.89494053	-0.51614484
5175	51.74000000	-0.14977401	-0.00881420	0.04059461	-0.58618017	-0.08407558	-0.41818986	-0.52549747	-0.04502802	-0.60647208	-0.86661547	0.02323148	-0.43533332	0.28421338	0.24854084	-1.87345532	-1.08654534	-0.02237338	-0.33535470	-0.16018686	-0.23552246	-0.34482436	0.76960339	0.60320869	-0.40990812
5176	51.75000000	-0.12081122	-0.02315265	0.00479045	-0.59751124	-0.07052730	-0.41360142	-0.50756574	-0.03481403	-0.64137131	-0.84172276	0.05990931	-0.42700155	0.49759174	0.16669893	-1.80978870	-0.82087332	-0.01372974	-0.33199455	-0.17877725	-0.26216380	-0.39148044	1.00906315	0.30829395	-0.33789630
5177	51.76000000	-0.08577122	-0.03575596	-0.02228439	-0.59106599	-0.05815710	-0.40036284	-0.46367920	-0.02794650	-0.69081231	-0.80429676	0.10869655	-0.44455421	0.66656477	0.08447894	-1.68448513	-0.60587913	0.03188048	-0.27823622	-0.12367275	-0.33004760	-0.44973624	0.92013263	0.13838414	-0.26731230
5178	51.77000000	-0.03882988	-0.04745089	-0.05329326	-0.57629541	-0.06392643	-0.37774435	-0.44148895	-0.00834272	-0.75012757	-0.76287320	0.13940001	-0.45236099	0.67043254	-0.00025605	-1.49625492	-0.44129741	0.05594070	-0.23333107	-0.02386960	-0.40528219	-0.49262498	0.79774296	0.05060312	-0.28645825
5179	51.78000000	0.00574626	-0.06720836	-0.08475796	-0.54026074	-0.07595005	-0.34796689	-0.41935513	0.00525786	-0.80668642	-0.70100206	0.15075781	-0.42843109	0.55723480	-0.07738185	-1.30061295	-0.30017998	0.04224310	-0.20841548	-0.03451433	-0.47708927	-0.50724836	0.70699667	-0.05703100	-0.40225433
5180	51.79000000	0.03309661	-0.07895292	-0.11362217	-0.48957802	-0.08273063	-0.30973822	-0.37172804	0.02270526	-0.86019138	-0.60458819	0.16159177	-0.39161253	0.38571687	-0.17320206	-1.10730392	-0.19435404	0.01907242	-0.19793012	-0.06339871	-0.55003072	-0.49745384	0.73798723	-0.06372276	-0.66360492
5181	51.80000000	0.06009905	-0.09313882	-0.13857861	-0.44392370	-0.10586107	-0.25861998	-0.30737945	0.04846135	-0.92366270	-0.47881642	0.17524073	-0.37460068	0.20302210	-0.24747067	-0.90398051	-0.09045262	-0.01006515	-0.19257178	-0.06071657	-0.62786698	-0.47729391	0.41374514	0.06355792	-0.86592399
5182	51.81000000	0.09352055	-0.11098593	-0.15421300	-0.39256007	-0.13149983	-0.18806187	-0.26449642	0.08577222	-0.97989984	-0.34483902	0.18158756	-0.37159201	-0.08027275	-0.20458252	-0.65635168	0.01441500	-0.04121895	-0.21340849	-0.09671425	-0.70258810	-0.44219429	-0.24684217	0.01053508	-0.90619575
5183	51.82000000	0.13172688	-0.12495398	-0.16808537	-0.33933265	-0.15609061	-0.12721779	-0.20851651	0.13633151	-1.02454421	-0.20470777	0.17410229	-0.37105165	-0.59999121	-0.16442849	-0.40409827	0.07512511	-0.07395231	-0.26138211	-0.10579743	-0.78752188	-0.40687758	-0.46497322	-0.33352949	-0.98926926
5184	51.83000000	0.16241520	-0.14352817	-0.18215839	-0.29041047	-0.19831148	-0.06971709	-0.11213416	0.17151162	-1.07336557	-0.04953617	0.15605166	-0.37473200	-1.05383366	-0.21583640	-0.21202175	0.04818317	-0.13481519	-0.31123842	-0.11868428	-0.88522676	-0.37773366	-0.37561569	-0.84334486	-1.10846120
5185	51.84000000	0.18147109	-0.16516997	-0.18161846	-0.24261136	-0.24396461	-0.01318721	-0.01686235	0.19976752	-1.13237788	0.10721582	0.15010071	-0.39046010	-1.41639354	-0.27220702	-0.00514847	-0.10179303	-0.22441930	-0.34706057	-0.13848844	-0.96038547	-0.33902165	-0.28033777	-1.32500832	-1.13536757
5186	51.85000000	0.19426496	-0.17676084	-0.17227541	-0.19852521	-0.28260197	0.03288930	0.07251444	0.22928994	-1.21208828	0.26278839	0.15890463	-0.40796497	-1.84654279	-0.25808275	0.29524800	-0.32076590	-0.31191500	-0.34646941	-0.17312834	-1.05685224	-0.29112337	-1.23046523	-1.82640722	-1.00477028
5187	51.86000000	0.22107233	-0.18067768	-0.15295228	-0.16605881	-0.30839212	0.07281150	0.12902358	0.23741909	-1.30042252	0.38682386	0.16423388	-0.40744026	-2.29984703	-0.25245684	0.72125860	-0.51095785	-0.39086410	-0.32363879	-0.21659720	-1.16818420	-0.25388136	-2.69678707	-2.05766054	-0.39927368
5188	51.87000000	0.25209311	-0.17278696	-0.12258385	-0.14132994	-0.31668729	0.09398332	0.16501198	0.24905644	-1.40047816	0.46975928	0.17192571	-0.38259222	-2.93558959	-0.26222363	1.25640310	-0.61163646	-0.46605712	-0.27260118	-0.26521384	-1.33094846	-0.25319492	-1.83846564	-0.27906773	0.69949799
5189	51.88000000	0.26636237	-0.15926473	-0.08185783	-0.13661420	-0.30148970	0.09169145	0.22508214	0.26009601	-1.53348185	0.52604652	0.19152764	-0.31383973	-3.22369311	-0.22089365	1.92411189	-0.70112132	-0.54476366	-0.21522299	-0.31954093	-1.58970896	-0.30234856	-0.24201214	0.82062497	0.50590035
5190	51.89000000	0.29261979	-0.15184398	-0.04418994	-0.15791977	-0.26697378	0.07585087	0.25439434	0.21946626	-1.71542468	0.53256653	0.21483373	-0.18065262	-2.41572498	-0.86364751	2.34347636	-0.83446502	-0.63212073	-0.18468698	-0.30661218	-1.90857494	-0.40615794	-0.50087718	0.03218834	0.00086212
5191	51.90000000	0.32877360	-0.16016261	-0.02530089	-0.17459186	-0.24566381	0.05394644	0.25568436	0.17186694	-1.88660232	0.49515712	0.26800532	-0.00606078	-0.86250286	-1.48746393	2.23258330	-1.00849422	-0.77052916	-0.08159533	-0.20667433	-2.25909254	-0.52130179	-0.69441852	-0.13258032	0.17547693
5192	51.91000000	0.37485080	-0.19525947	-0.00657888	-0.16944753	-0.24027009	0.03634235	0.34373335	0.15453061	-1.98269692	0.47170361	0.36294260	0.20568311	-0.47502957	-0.74631541	1.67269619	-1.08925661	-0.88974424	0.09651616	-0.01258424	-2.73062516	-0.59784828	-0.50591712	-0.06416730	0.11777615
5193	51.92000000	0.42114469	-0.23015514	0.00346065	-0.14564989	-0.22175371	0.04660914	0.44669411	0.13185061	-2.05486936	0.50986232	0.44923027	0.45636360	-1.11712510	-0.27965343	0.91010220	-0.80596135	-0.88474274	0.23599793	0.12295805	-3.23390393	-0.62505433	-0.41412637	-0.12095786	0.15198036
